<?xml version="1.0" standalone="no"?>
<!DOCTYPE svg PUBLIC "-//W3C//DTD SVG 20010904//EN"
 "http://www.w3.org/TR/2001/REC-SVG-20010904/DTD/svg10.dtd">
<svg version="1.0" xmlns="http://www.w3.org/2000/svg"
 width="26.000000pt" height="26.000000pt" viewBox="0 0 26.000000 26.000000"
 preserveAspectRatio="xMidYMid meet">
<metadata>
Created by potrace 1.16, written by Peter Selinger 2001-2019
</metadata>
<g transform="translate(0.000000,26.000000) scale(0.100000,-0.100000)"
fill="#000000" stroke="none">
<path d="M0 241 c0 -11 5 -23 10 -26 6 -3 10 -16 10 -28 0 -17 -2 -19 -9 -8
-6 8 -9 -23 -10 -83 -2 -109 5 -116 57 -66 18 16 39 30 48 30 15 0 15 2 2 18
-20 24 -44 82 -27 65 15 -15 39 -17 39 -4 0 5 -13 14 -30 19 -24 9 -31 18 -36
51 -4 22 -10 38 -15 35 -5 -3 -9 0 -9 5 0 6 -7 11 -15 11 -8 0 -15 -9 -15 -19z"/>
<path d="M223 252 c-11 -7 -20 -36 -22 -70 -1 -7 -14 -18 -31 -23 -34 -12 -40
-29 -10 -29 11 0 20 5 20 11 0 5 4 7 10 4 6 -4 0 -21 -15 -43 l-25 -36 31 -13
c35 -14 61 -38 52 -47 -4 -3 1 -6 10 -6 15 0 17 15 17 130 0 132 -4 143 -37
122z"/>
</g>
</svg>
